HIERARCHY
ROOT Hips
{
    OFFSET 0.000000 0.000000 0.000000
    CHANNELS 6 Xposition Yposition Zposition Zrotation Xrotation Yrotation
    JOINT Spine
    {
        OFFSET -0.000000 7.236184 0.000000
        CHANNELS 3 Zrotation Xrotation Yrotation
        JOINT Spine1
        {
            OFFSET -0.000000 20.420147 0.000000
            CHANNELS 3 Zrotation Xrotation Yrotation
            JOINT Neck
            {
                OFFSET -0.000000 20.336288 1.848754
                CHANNELS 3 Zrotation Xrotation Yrotation
                JOINT Head
                {
                    OFFSET -0.000000 12.354461 -1.764923
                    CHANNELS 3 Zrotation Xrotation Yrotation
                    End Site
                    {
                        OFFSET -0.000000 22.061537 0.000000
                    }
                }
            }
            JOINT LeftShoulder
            {
                OFFSET 3.573296 18.396038 -0.314103
                CHANNELS 3 Zrotation Xrotation Yrotation
                JOINT LeftArm
                {
                    OFFSET 10.880760 0.000000 0.000000
                    CHANNELS 3 Zrotation Xrotation Yrotation
                    JOINT LeftForeArm
                    {
                        OFFSET 27.185530 0.000000 0.000000
                        CHANNELS 3 Zrotation Xrotation Yrotation
                        JOINT LeftHand
                        {
                            OFFSET 27.825975 0.000000 0.000000
                            CHANNELS 3 Zrotation Xrotation Yrotation
                            End Site
                            {
                                OFFSET 13.236923 0.000000 0.000000
                            }
                        }
                    }
                }
            }
            JOINT RightShoulder
            {
                OFFSET -3.474926 18.396038 -0.314103
                CHANNELS 3 Zrotation Xrotation Yrotation
                JOINT RightArm
                {
                    OFFSET -10.880760 0.000000 0.000000
                    CHANNELS 3 Zrotation Xrotation Yrotation
                    JOINT RightForeArm
                    {
                        OFFSET -27.185530 0.000000 0.000000
                        CHANNELS 3 Zrotation Xrotation Yrotation
                        JOINT RightHand
                        {
                            OFFSET -27.825975 0.000000 0.000000
                            CHANNELS 3 Zrotation Xrotation Yrotation
                            End Site
                            {
                                OFFSET -13.236923 0.000000 0.000000
                            }
                        }
                    }
                }
            }
        }
    }
    JOINT LeftUpLeg
    {
        OFFSET 8.824615 0.000000 0.000000
        CHANNELS 3 Zrotation Xrotation Yrotation
        JOINT LeftLeg
        {
            OFFSET -0.000000 -35.111282 0.000000
            CHANNELS 3 Zrotation Xrotation Yrotation
            JOINT LeftFoot
            {
                OFFSET -0.000000 -42.324711 0.000000
                CHANNELS 3 Zrotation Xrotation Yrotation
                JOINT LeftToeBase
                {
                    OFFSET -0.000000 -5.735999 13.236923
                    CHANNELS 3 Zrotation Xrotation Yrotation
                    End Site
                    {
                        OFFSET -0.000000 0.000000 3.529846
                    }
                }
            }
        }
    }
    JOINT RightUpLeg
    {
        OFFSET -8.824615 0.000000 0.000000
        CHANNELS 3 Zrotation Xrotation Yrotation
        JOINT RightLeg
        {
            OFFSET -0.000000 -35.111282 0.000000
            CHANNELS 3 Zrotation Xrotation Yrotation
            JOINT RightFoot
            {
                OFFSET -0.000000 -42.324711 0.000000
                CHANNELS 3 Zrotation Xrotation Yrotation
                JOINT RightToeBase
                {
                    OFFSET -0.000000 -5.735999 13.236923
                    CHANNELS 3 Zrotation Xrotation Yrotation
                    End Site
                    {
                        OFFSET -0.000000 0.000000 3.529846
                    }
                }
            }
        }
    }
}
MOTION
Frames:    8
Frame Time:    0.008333
-4.086197    81.096466    99.758652    -0.983376    -5.314403    -178.462311    -2.630621    -14.239058    0.558641    1.425799    7.714779    0.791158    2.614392    7.094160    -2.089274    7.457299    -1.557936    -1.231241    -0.534919    18.043150    -1.101532    -49.103977    45.295589    -32.863735    16.330057    -11.154336    -58.836662    24.062239    -2.280703    -1.629903    6.715583    18.773735    -5.361398    39.071030    47.635963    35.735432    -21.944489    -19.404356    64.512741    -37.571693    -4.837518    -2.502136    3.915254    -8.827470    -0.733694    0.144233    17.889362    -3.209878    -4.889938    -11.926403    -7.152063    -0.237256    -1.268408    0.263598    -6.053173    -3.731586    1.050356    2.609895    10.287538    7.329833    -1.827608    -8.102317    -13.377538    -2.817536    0.083502    3.046934    
-4.090222    81.096336    99.754837    -0.995694    -5.320828    -178.463287    -2.645820    -14.207822    0.551055    1.428019    7.723459    0.784490    2.617044    7.103366    -2.092903    7.459730    -1.611658    -1.231214    -0.550597    18.053276    -1.116436    -49.040749    45.348103    -32.971035    16.349125    -11.072614    -58.712536    23.716322    -2.187418    -1.546334    6.726700    18.786930    -5.359458    39.059971    47.650501    35.775093    -21.847363    -19.310541    64.460411    -37.047535    -4.840614    -2.469718    3.896186    -8.840603    -0.740553    0.147967    17.905006    -3.197274    -4.893890    -11.926767    -7.157487    -0.234803    -1.268167    0.260872    -6.067119    -3.754736    1.031990    2.606700    10.323294    7.332792    -1.834064    -8.113920    -13.370182    -2.745675    -0.012281    2.969616    
-4.094274    81.096252    99.751129    -1.007881    -5.327816    -178.464035    -2.660943    -14.176707    0.543378    1.430383    7.731936    0.777646    2.619471    7.111695    -2.096400    7.461797    -1.665701    -1.231075    -0.566057    18.062922    -1.131387    -48.977314    45.400318    -33.078430    16.366867    -10.991220    -58.587883    23.368763    -2.095502    -1.460864    6.737807    18.800003    -5.357448    39.047611    47.665642    35.815117    -21.751324    -19.218334    64.406044    -36.516945    -4.844812    -2.437489    3.877351    -8.854378    -0.747280    0.151542    17.920593    -3.184822    -4.897635    -11.926956    -7.163090    -0.232441    -1.267470    0.258248    -6.081030    -3.778320    1.012994    2.603509    10.358675    7.335066    -1.836658    -8.125631    -13.361023    -2.676600    -0.105328    2.895281    
-4.098280    81.096252    99.747787    -1.019536    -5.335723    -178.464249    -2.675642    -14.146615    0.535635    1.433195    7.739726    0.770715    2.621601    7.119039    -2.099447    7.462379    -1.720095    -1.230713    -0.580932    18.072273    -1.146071    -48.915211    45.450134    -33.183556    16.382511    -10.912158    -58.465042    23.029058    -2.007720    -1.376628    6.748406    18.812729    -5.355290    39.033207    47.681381    35.854969    -21.659349    -19.130325    64.350006    -35.991642    -4.850355    -2.406054    3.859397    -8.869175    -0.753517    0.154688    17.935654    -3.172469    -4.901088    -11.926594    -7.169355    -0.230044    -1.266797    0.255584    -6.094668    -3.802131    0.993584    2.600663    10.392468    7.336571    -1.838726    -8.136425    -13.350644    -2.614861    -0.189775    2.828831    
-4.102297    81.096352    99.744904    -1.030690    -5.345101    -178.463791    -2.689835    -14.117389    0.527662    1.436176    7.746517    0.763646    2.623379    7.124179    -2.102068    7.461427    -1.774177    -1.230149    -0.595204    18.081593    -1.160407    -48.854118    45.497009    -33.287209    16.395350    -10.834686    -58.342621    22.696888    -1.924128    -1.294289    6.759020    18.824884    -5.352802    39.016399    47.698090    35.894154    -21.571016    -19.046061    64.291550    -35.466854    -4.857464    -2.374912    3.842307    -8.885665    -0.759040    0.157438    17.950325    -3.160409    -4.904417    -11.925602    -7.176485    -0.227556    -1.265297    0.252819    -6.107987    -3.826813    0.973077    2.597870    10.424603    7.336286    -1.843288    -8.145660    -13.338004    -2.561915    -0.262741    2.771833    
-4.106390    81.096573    99.742531    -1.041508    -5.356487    -178.462570    -2.703826    -14.088866    0.519480    1.439660    7.752328    0.756131    2.624740    7.127250    -2.104121    7.458393    -1.829626    -1.229300    -0.609140    18.091770    -1.174414    -48.793251    45.540070    -33.391132    16.405043    -10.758039    -58.219402    22.370117    -1.844297    -1.213985    6.769449    18.836718    -5.349937    38.996925    47.715298    35.933247    -21.485188    -18.964401    64.230011    -34.935253    -4.866349    -2.343371    3.825901    -8.904533    -0.763681    0.159687    17.964611    -3.148556    -4.907725    -11.923678    -7.184697    -0.224705    -1.263494    0.249650    -6.121319    -3.853035    0.951530    2.595329    10.455378    7.334342    -1.843657    -8.154250    -13.322512    -2.517477    -0.326303    2.723995    
-4.110494    81.096924    99.740852    -1.051903    -5.370210    -178.460526    -2.717566    -14.061828    0.511064    1.443708    7.756549    0.748455    2.625632    7.127632    -2.105574    7.452979    -1.884419    -1.228235    -0.622536    18.103031    -1.188064    -48.734745    45.576874    -33.492241    16.411213    -10.683941    -58.098030    22.055986    -1.770286    -1.138500    6.779203    18.847857    -5.346676    38.976017    47.732483    35.970615    -21.403885    -18.887484    64.167274    -34.405617    -4.877002    -2.311996    3.810426    -8.926128    -0.767093    0.161376    17.978395    -3.136994    -4.911471    -11.920811    -7.194345    -0.221417    -1.261212    0.245996    -6.134448    -3.880885    0.929032    2.592799    10.484072    7.330454    -1.837866    -8.162068    -13.303655    -2.481905    -0.379013    2.685703    
-4.114710    81.097427    99.739906    -1.062292    -5.386782    -178.457611    -2.731584    -14.035770    0.502300    1.448454    7.759108    0.740389    2.626255    7.125169    -2.106330    7.444707    -1.939580    -1.226960    -0.636153    18.115450    -1.201751    -48.678001    45.607422    -33.591324    16.414625    -10.611649    -57.976746    21.748232    -1.700827    -1.066720    6.788773    18.858511    -5.342922    38.953583    47.748791    36.006485    -21.324982    -18.813744    64.102821    -33.866001    -4.889984    -2.279250    3.795399    -8.951184    -0.769183    0.162446    17.991877    -3.125808    -4.915933    -11.916825    -7.205446    -0.217454    -1.258183    0.241592    -6.147785    -3.911264    0.905257    2.590061    10.511369    7.324533    -1.832584    -8.168523    -13.282351    -2.453518    -0.422114    2.655145    
